PathFileType	4	(X/Y/Z)	C:/Users/Rosti/Documents/GitHub/TechForParalysis/Code/Model/04122019 - Marker Volunteer01/Rosti Data/New Session 103.trc	
DataRate	CameraRate	NumFrames	NumMarkers	Units	OrigDataRate	OrigDataStartFrame	OrigNumFrames	
100.00	100.00	23	14	mm	100.00	466	620	
Frame#	Time	C7			PX			T8			IJ			SC			AC			AI			TS			AA			GH			LE			ME			US			RS			
		X1	Y1	Z1	X2	Y2	Z2	X3	Y3	Z3	X4	Y4	Z4	X5	Y5	Z5	X6	Y6	Z6	X7	Y7	Z7	X8	Y8	Z8	X9	Y9	Z9	X10	Y10	Z10	X11	Y11	Z11	X12	Y12	Z12	X13	Y13	Z13	X14	Y14	Z14	

466	4.65	20.2743	1534.97	692.289	-17.8261	1291.02	461.128	13.9759	1320.7	760.778	-12.3826	1433.74	528.722	12.7853	1441.27	532.685	163.201	1471.68	590.174	101.556	1455.56	724.528	97.2365	1337.66	758.367	215.74	1426.85	657.452	225.331	1438.35	615.689	252.152	1148.66	536.789	163.483	1130.63	512.552	271.605	889.213	429.367	334.953	925.388	405.447
467	4.66	20.246	1534.98	692.295	-17.75	1291.07	461.047	13.9539	1320.69	760.796	-12.3389	1433.75	528.687	12.8229	1441.29	532.647	163.248	1471.71	590.31	101.447	1455.53	724.659	97.1534	1337.6	758.434	215.716	1426.85	657.614	225.363	1438.38	615.887	252.14	1148.72	536.823	163.56	1130.69	512.544	271.702	889.298	429.254	335.125	925.466	405.489
468	4.67	20.207	1534.99	692.317	-17.6819	1291.12	460.968	13.9262	1320.69	760.818	-12.2916	1433.75	528.657	12.8762	1441.32	532.62	163.292	1471.75	590.468	101.341	1455.49	724.796	97.0673	1337.53	758.504	215.682	1426.84	657.796	225.39	1438.4	616.096	252.129	1148.81	536.823	163.669	1130.75	512.543	271.741	889.413	429.014	335.344	925.584	405.467
469	4.68	20.1619	1535	692.352	-17.6206	1291.17	460.895	13.8946	1320.68	760.842	-12.2414	1433.77	528.632	12.9457	1441.35	532.607	163.33	1471.79	590.641	101.251	1455.44	724.929	96.9781	1337.46	758.577	215.644	1426.83	657.995	225.417	1438.42	616.317	252.176	1148.9	536.805	163.792	1130.82	512.507	271.777	889.551	428.712	335.604	925.742	405.384
470	4.69	20.1154	1535.01	692.393	-17.5651	1291.21	460.83	13.8609	1320.67	760.864	-12.1897	1433.79	528.612	13.0244	1441.38	532.602	163.36	1471.83	590.818	101.177	1455.39	725.05	96.8866	1337.38	758.649	215.609	1426.82	658.202	225.452	1438.46	616.554	252.314	1149	536.783	163.908	1130.91	512.382	271.918	889.708	428.441	335.9	925.941	405.25
471	4.7	20.0696	1535.01	692.435	-17.5157	1291.26	460.772	13.8269	1320.66	760.883	-12.1391	1433.82	528.597	13.0953	1441.42	532.606	163.386	1471.87	590.986	101.108	1455.34	725.161	96.7958	1337.32	758.721	215.575	1426.82	658.401	225.494	1438.51	616.806	252.486	1149.09	536.749	164.009	1131.03	512.12	272.201	889.886	428.203	336.225	926.178	405.074
472	4.71	20.0242	1535.01	692.476	-17.4743	1291.3	460.719	13.7949	1320.65	760.898	-12.0925	1433.86	528.588	13.1381	1441.46	532.623	163.408	1471.91	591.137	101.037	1455.29	725.265	96.7115	1337.27	758.792	215.542	1426.83	658.584	225.541	1438.57	617.063	252.626	1149.2	536.684	164.114	1131.2	511.711	272.571	890.093	427.916	336.572	926.448	404.87
473	4.72	19.9777	1535.01	692.515	-17.4426	1291.35	460.672	13.7666	1320.64	760.907	-12.0532	1433.89	528.583	13.1452	1441.49	532.654	163.423	1471.95	591.272	100.964	1455.26	725.367	96.6415	1337.23	758.861	215.521	1426.87	658.754	225.581	1438.65	617.303	252.751	1149.33	536.589	164.252	1131.4	511.2	272.952	890.327	427.531	336.935	926.743	404.644
474	4.73	19.9286	1535	692.554	-17.4204	1291.39	460.632	13.7436	1320.63	760.913	-12.0237	1433.93	528.584	13.1278	1441.52	532.692	163.428	1472.01	591.394	100.897	1455.24	725.464	96.5921	1337.2	758.927	215.521	1426.93	658.915	225.597	1438.72	617.503	252.928	1149.5	536.484	164.442	1131.63	510.671	273.311	890.594	427.099	337.308	927.055	404.397
475	4.74	19.876	1535	692.595	-17.4032	1291.43	460.601	13.727	1320.62	760.916	-12.0053	1433.97	528.587	13.1092	1441.54	532.722	163.425	1472.06	591.505	100.843	1455.23	725.554	96.5664	1337.18	758.987	215.533	1427	659.063	225.586	1438.78	617.665	253.178	1149.68	536.382	164.677	1131.85	510.224	273.628	890.889	426.679	337.687	927.377	404.131
476	4.75	19.8195	1535	692.64	-17.3856	1291.47	460.581	13.7174	1320.6	760.917	-11.9978	1434.01	528.594	13.1079	1441.56	532.737	163.417	1472.11	591.607	100.802	1455.22	725.634	96.563	1337.16	759.038	215.532	1427.07	659.187	225.56	1438.85	617.806	253.449	1149.85	536.278	164.947	1132.03	509.939	273.901	891.201	426.273	338.068	927.705	403.852
477	4.76	19.7601	1535	692.685	-17.3661	1291.5	460.57	13.7149	1320.59	760.917	-12	1434.04	528.602	13.1153	1441.58	532.752	163.404	1472.18	591.701	100.773	1455.2	725.703	96.5776	1337.15	759.08	215.507	1427.12	659.283	225.529	1438.92	617.937	253.681	1149.99	536.166	165.243	1132.16	509.853	274.167	891.513	425.865	338.45	928.039	403.571
478	4.77	19.7001	1535	692.728	-17.3475	1291.54	460.563	13.7192	1320.57	760.916	-12.0097	1434.07	528.612	13.1116	1441.59	532.778	163.38	1472.24	591.787	100.749	1455.18	725.766	96.6046	1337.14	759.111	215.465	1427.15	659.354	225.498	1439	618.054	253.859	1150.12	536.042	165.555	1132.24	509.943	274.501	891.813	425.469	338.827	928.378	403.291
479	4.78	19.6434	1534.99	692.769	-17.3321	1291.58	460.551	13.7297	1320.56	760.917	-12.0243	1434.1	528.623	13.0871	1441.61	532.814	163.344	1472.32	591.864	100.725	1455.17	725.825	96.6388	1337.13	759.134	215.426	1427.19	659.41	225.465	1439.08	618.149	254.012	1150.26	535.904	165.858	1132.28	510.113	274.951	892.105	425.12	339.188	928.717	403.013
480	4.79	19.5937	1534.96	692.808	-17.3214	1291.63	460.529	13.7459	1320.54	760.918	-12.0411	1434.12	528.636	13.0395	1441.63	532.854	163.302	1472.41	591.93	100.702	1455.16	725.883	96.6758	1337.12	759.148	215.402	1427.24	659.455	225.427	1439.17	618.21	254.171	1150.41	535.758	166.12	1132.32	510.238	275.479	892.401	424.846	339.528	929.051	402.74
481	4.8	19.5507	1534.93	692.851	-17.3153	1291.68	460.498	13.767	1320.52	760.922	-12.0578	1434.14	528.651	12.9832	1441.66	532.887	163.265	1472.49	591.983	100.68	1455.16	725.939	96.7136	1337.1	759.154	215.394	1427.32	659.493	225.386	1439.27	618.24	254.345	1150.59	535.616	166.313	1132.39	510.236	275.993	892.7	424.641	339.852	929.376	402.487
482	4.81	19.5093	1534.91	692.9	-17.3118	1291.73	460.465	13.7923	1320.5	760.927	-12.0727	1434.16	528.667	12.9378	1441.7	532.906	163.236	1472.58	592.024	100.663	1455.17	725.991	96.7521	1337.09	759.154	215.395	1427.41	659.529	225.351	1439.37	618.248	254.527	1150.78	535.494	166.421	1132.51	510.086	276.413	892.98	424.451	340.174	929.693	402.265
483	4.82	19.4656	1534.88	692.957	-17.3089	1291.76	460.439	13.8213	1320.48	760.935	-12.0855	1434.18	528.683	12.9157	1441.74	532.911	163.212	1472.66	592.054	100.653	1455.17	726.038	96.7911	1337.08	759.151	215.401	1427.51	659.56	225.324	1439.47	618.249	254.699	1150.97	535.402	166.448	1132.68	509.822	276.696	893.219	424.201	340.498	929.997	402.077
484	4.83	19.4201	1534.87	693.017	-17.3084	1291.79	460.428	13.8534	1320.46	760.947	-12.0972	1434.2	528.701	12.9178	1441.79	532.913	163.188	1472.73	592.079	100.649	1455.18	726.081	96.8313	1337.06	759.149	215.406	1427.59	659.58	225.305	1439.57	618.257	254.843	1151.15	535.341	166.425	1132.87	509.511	276.869	893.422	423.883	340.81	930.282	401.906
485	4.84	19.3744	1534.86	693.079	-17.3144	1291.82	460.431	13.8884	1320.44	760.961	-12.1098	1434.22	528.72	12.9304	1441.84	532.921	163.165	1472.8	592.102	100.649	1455.18	726.122	96.8733	1337.05	759.147	215.406	1427.66	659.586	225.291	1439.67	618.273	254.953	1151.3	535.305	166.4	1133.05	509.225	277.019	893.61	423.559	341.093	930.542	401.737
486	4.85	19.3297	1534.85	693.145	-17.3309	1291.86	460.441	13.9258	1320.42	760.978	-12.1261	1434.24	528.742	12.9293	1441.9	532.944	163.143	1472.86	592.124	100.647	1455.19	726.162	96.9174	1337.04	759.144	215.401	1427.73	659.586	225.279	1439.77	618.296	255.032	1151.43	535.282	166.407	1133.2	509.014	277.207	893.79	423.284	341.337	930.78	401.571
487	4.86	19.2872	1534.85	693.216	-17.359	1291.91	460.446	13.9651	1320.39	760.998	-12.149	1434.27	528.768	12.9024	1441.96	532.981	163.119	1472.92	592.144	100.642	1455.19	726.2	96.9619	1337.03	759.14	215.391	1427.79	659.587	225.263	1439.86	618.318	255.089	1151.54	535.259	166.461	1133.3	508.9	277.443	893.957	423.087	341.542	931	401.42
488	4.87	19.2473	1534.86	693.291	-17.3958	1291.97	460.444	14.0062	1320.37	761.019	-12.181	1434.3	528.798	12.8585	1442.02	533.021	163.09	1472.98	592.161	100.633	1455.19	726.237	97.005	1337.02	759.136	215.379	1427.85	659.594	225.242	1439.94	618.335	255.135	1151.64	535.234	166.558	1133.34	508.884	277.711	894.11	422.974	341.713	931.199	401.293
